<svg width="78" height="27" viewBox="0 0 78 27" fill="none" xmlns="http://www.w3.org/2000/svg">
<path fill-rule="evenodd" clip-rule="evenodd" d="M0 8.52013V8.58674L13.1864 15.7496L26.4194 8.56228V8.54407L13.1864 1.35723L0 8.52013ZM4.75401 8.55343L13.1869 3.9728L21.6206 8.55343L13.1864 13.1335L4.75401 8.55343V8.55343ZM13.1864 18.5317L0 11.476V14.0854L13.1864 21.1577L26.4194 14.0614V11.4516L13.1864 18.5317ZM13.1864 23.8243L0 16.7676V19.3774L13.1864 26.4503L26.4194 19.354V16.7447L13.1864 23.8243ZM74.9935 13.6451C75.0011 12.5088 74.6389 11.412 73.9808 10.5789C73.6714 10.1894 73.2987 9.8766 72.8848 9.65878C72.4647 9.43744 72.009 9.32457 71.5486 9.3278C71.0882 9.32457 70.6325 9.43744 70.2124 9.65878C69.7985 9.87659 69.4258 10.1894 69.1164 10.5789C68.4582 11.4121 68.096 12.5092 68.1037 13.6456C68.096 14.7821 68.4582 15.8792 69.1164 16.7124C69.4259 17.1017 69.7985 17.4143 70.2124 17.632C70.6325 17.8535 71.0881 17.9665 71.5486 17.9635C72.0091 17.9665 72.4647 17.8535 72.8848 17.632C73.2987 17.4143 73.6713 17.1016 73.9808 16.7124C74.639 15.8792 75.0013 14.7821 74.9935 13.6456V13.6451ZM78 13.6451C78 14.7088 77.8329 15.694 77.4992 16.6015C77.1783 17.4868 76.7096 18.2877 76.1209 18.9569C75.5363 19.6194 74.8507 20.1429 74.0645 20.527C73.2779 20.9116 72.4394 21.1036 71.5486 21.1036C70.6578 21.1036 69.8228 20.911 69.0433 20.527C68.282 20.1568 67.5876 19.6199 66.9971 18.9449C66.4097 18.2697 65.9413 17.465 65.6188 16.5771C65.2851 15.6695 65.118 14.6922 65.118 13.6456C65.118 12.6152 65.2887 11.6462 65.6295 10.7386C65.9598 9.84924 66.4309 9.04165 67.018 8.3588C67.6061 7.67734 68.3009 7.13588 69.0641 6.76427C69.8437 6.37969 70.6715 6.18766 71.5486 6.18766C72.4394 6.18766 73.2779 6.37969 74.0645 6.76427C74.8507 7.14833 75.5363 7.67186 76.1209 8.33434C76.7059 8.9963 77.165 9.78576 77.4992 10.7017C77.8329 11.6176 78 12.5986 78 13.6456V13.6451ZM64.0743 20.6618C63.8167 20.8011 63.5472 20.908 63.2704 20.9808C62.9658 21.0633 62.6541 21.1045 62.3415 21.1036C61.8961 21.1036 61.468 21.0339 61.0572 20.8954C60.6611 20.7654 60.2941 20.535 59.982 20.2205C59.6762 19.9098 59.4325 19.5049 59.2512 19.0058C59.0704 18.5073 58.98 17.9062 58.98 17.2026V0.373138H62.049V16.5891C62.049 17.1782 62.15 17.583 62.3517 17.8037C62.5538 18.0249 62.7935 18.1352 63.0719 18.1352C63.4202 18.1352 63.7544 18.0124 64.0743 17.7673V20.6618V20.6618ZM57.6225 6.53113L52.194 23.3851C51.7907 24.6445 51.2615 25.552 50.6074 26.1084C49.9532 26.6642 49.1737 26.9426 48.2687 26.9426C48.1152 26.9414 47.9618 26.9291 47.8096 26.9056C47.6476 26.8822 47.4872 26.8454 47.3296 26.7953L46.3271 23.5079C46.5618 23.638 46.8067 23.7408 47.0584 23.8149C47.29 23.8854 47.5282 23.9223 47.7675 23.9247C48.2412 23.9247 48.6724 23.7983 49.0624 23.5448C49.452 23.2909 49.7511 22.8209 49.9599 22.134L50.3778 20.7112L45.7217 6.53113H48.9995L51.7765 15.657L54.3864 6.53113H57.6225V6.53113ZM44.9909 4.39641H37.1413V8.95987H44.8872V12.0511H37.1413V20.7357H33.9681V1.13398H44.9914V4.39693L44.9909 4.39641Z" fill="white"/>
</svg>
